Coordinates
nRows=10
nColumns=24

# SIMM Motion File Header:
name Coordinates
datacolumns 24
datarows 10
otherdata 1
range 1.21200000000000000000 1.22100000000000010000
endheader
time	pelvis_tx	pelvis_ty	pelvis_tz	pelvis_tilt	pelvis_list	pelvis_rotation	hip_flexion_r	hip_adduction_r	hip_rotation_r	knee_angle_r	ankle_angle_r	subtalar_angle_r	mtp_angle_r	hip_flexion_l	hip_adduction_l	hip_rotation_l	knee_angle_l	ankle_angle_l	subtalar_angle_l	mtp_angle_l	lumbar_extension	lumbar_bending	lumbar_rotation
      1.21200000000000000000	      1.86551893055383070000	      0.93868901305646490000	     -0.28926021364713905000	     -3.26172507403983490000	      0.20998072910927876000	      3.01412917572620790000	     19.87052560497944900000	     -0.88150728403657508000	      7.27655729661231470000	    -10.22979342590626400000	     -6.22432038680207980000	      0.00000000000001374189	     -0.00000000000003195676	     -9.76954968653723380000	      3.25336131341858480000	      8.57655184015536070000	    -19.33077039913893800000	      0.00334010970104381410	      0.00000000000010368668	      0.00000000000010687572	      2.80520917415859290000	      2.82118712664413310000	     -0.95674736027854934000
      1.21300000000000010000	      1.86619463107743750000	      0.93879470589134628000	     -0.28915112869064469000	     -3.25563872803350750000	      0.20679357713313953000	      3.01882696080974620000	     19.81932523666913000000	     -0.87389287374626967000	      7.22151496108561460000	    -10.23589383139418800000	     -6.17341015691919990000	      0.00000000000001381640	     -0.00000000000003229308	     -9.73285440822848890000	      3.23531765279614090000	      8.50902284706834600000	    -19.46108969944219400000	     -0.14187028477552754000	      0.00000000000010393967	      0.00000000000010698147	      2.80802640956904350000	      2.82598468506263690000	     -0.96193659092166850000
      1.21400000000000000000	      1.86687025313395940000	      0.93890012794749922000	     -0.28904188856725765000	     -3.24942619951787390000	      0.20358189993726419000	      3.02348395540945080000	     19.76786889077216400000	     -0.86618997457162050000	      7.16675678981661420000	    -10.24170811833025700000	     -6.12271880028093030000	      0.00000000000001388803	     -0.00000000000003263225	     -9.69605577874704670000	      3.21708001585928650000	      8.44080474214678670000	    -19.59155959306690100000	     -0.28785523411257941000	      0.00000000000010419181	      0.00000000000010708876	      2.81070219232255920000	      2.83080046940717580000	     -0.96707011265645604000
      1.21500000000000010000	      1.86754563978922650000	      0.93900473766746706000	     -0.28893218294319239000	     -3.24283512347430980000	      0.20029664708217640000	      3.02801857855765450000	     19.71564461211519500000	     -0.85822160874392905000	      7.11285111132067890000	    -10.24666404961075000000	     -6.07268406337645940000	      0.00000000000001395105	     -0.00000000000003297998	     -9.65894709574747350000	      3.19826044997917560000	      8.37051930172149740000	    -19.72248126665607900000	     -0.43616384803124242000	      0.00000000000010444136	      0.00000000000010720064	      2.81295361710526400000	      2.83567093152982300000	     -0.97203650766625027000
      1.21600000000000000000	      1.86822102644449360000	      0.93910934738743490000	     -0.28882247731912714000	     -3.23624404743074700000	      0.19701139422708933000	      3.03255320170585700000	     19.66342033345823700000	     -0.85025324291623938000	      7.05894543282475430000	    -10.25161998089124200000	     -6.02264932647200090000	      0.00000000000001401408	     -0.00000000000003332771	     -9.62183841274790910000	      3.17944088409906910000	      8.30023386129622230000	    -19.85340294024522800000	     -0.58447246194987246000	      0.00000000000010469092	      0.00000000000010731252	      2.81520504188796880000	      2.84054139365246970000	     -0.97700290267604351000
      1.21700000000000010000	      1.86889595621265530000	      0.93921267725203750000	     -0.28871216361503660000	     -3.22924400946693970000	      0.19359616303052013000	      3.03693486852022020000	     19.61031672954568400000	     -0.84188396981432545000	      7.00633756900038840000	    -10.25549203923291800000	     -5.97344102767018100000	      0.00000000000001407876	     -0.00000000000003364018	     -9.58416909270760260000	      3.15981368573812870000	      8.22732147506046550000	    -19.98502156458376800000	     -0.73563931781586833000	      0.00000000000010494074	      0.00000000000010742166	      2.81698744737084090000	      2.84552062074514380000	     -0.98178686110951785000
      1.21800000000000000000	      1.86957088598081690000	      0.93931600711664009000	     -0.28860184991094612000	     -3.22224397150313370000	      0.19018093183395163000	      3.04131653533458210000	     19.55721312563314000000	     -0.83351469671241307000	      6.95372970517603410000	    -10.25936409757459200000	     -5.92423272886837360000	      0.00000000000001414345	     -0.00000000000003395265	     -9.54649977266730510000	      3.14018648737719190000	      8.15440908882472470000	    -20.11664018892227900000	     -0.88680617368183245000	      0.00000000000010519056	      0.00000000000010753080	      2.81876985285371310000	      2.85049984783781700000	     -0.98657081954299097000
      1.21900000000000010000	      1.87024550694113660000	      0.93941863625136113000	     -0.28849123432276286000	     -3.21502413606091730000	      0.18669637143532328000	      3.04562177946697870000	     19.50365615126642300000	     -0.82492602875090071000	      6.90192151499363060000	    -10.26268194758164900000	     -5.87542321568842500000	      0.00000000000001421074	     -0.00000000000003426116	     -9.50853015066459230000	      3.12013363559705680000	      8.08019671266489680000	    -20.24864535331203500000	     -1.03938632671134460000	      0.00000000000010543593	      0.00000000000010766140	      2.82028983162325760000	      2.85554297236622870000	     -0.99128061608835205000
      1.22000000000000000000	      1.87091981909361430000	      0.93952056465620049000	     -0.28838031685048698000	     -3.20758450314029280000	      0.18314248183463627000	      3.04985060091740760000	     19.44964580644555600000	     -0.81611796592979069000	      6.85091299845320640000	    -10.26544558925408500000	     -5.82701248813036000000	      0.00000000000001428063	     -0.00000000000003456571	     -9.47026022669948200000	      3.09965513039772980000	      8.00468434658100850000	    -20.38103705775298400000	     -1.19337977690434480000	      0.00000000000010567684	      0.00000000000010781348	      2.82154738367947240000	      2.86064999433037710000	     -0.99591625074559875000
      1.22100000000000010000	      1.87159413124609220000	      0.93962249306103995000	     -0.28826939937821100000	     -3.20014487021966640000	      0.17958859223394846000	      3.05407942236783740000	     19.39563546162467500000	     -0.80730990310867867000	      6.79990448191277160000	    -10.26820923092652100000	     -5.77860176057228350000	      0.00000000000001435053	     -0.00000000000003487026	     -9.43199030273436280000	      3.07917662519839830000	      7.92917198049710410000	    -20.51342876219395700000	     -1.34737322709737950000	      0.00000000000010591775	      0.00000000000010796555	      2.82280493573568810000	      2.86575701629452610000	     -1.00055188540284660000
